<svg version="1.1" xmlns="http://www.w3.org/2000/svg" viewBox="0 0 687.7832169495109 229.48484390056012" width="687.7832169495109" height="229.48484390056012"><!-- svg-source:excalidraw --><metadata><!-- payload-type:application/vnd.excalidraw+json --><!-- payload-version:2 --><!-- payload-start -->eyJ2ZXJzaW9uIjoiMSIsImVuY29kaW5nIjoiYnN0cmluZyIsImNvbXByZXNzZWQiOnRydWUsImVuY29kZWQiOiJ4nO2cW1PbSFx1MDAxNsff8ylcXMzDvFxmmr5fZmtri4u5JGEg3JPNXHUwMDE0JduyLSxLRpLBMJXvPqdccnHLkm1cdTAwMTTHgGHXSSW4detunfPr/zndzd/vKpWV9LbnrfxRWfFcdTAwMDZ1N/BcdTAwMWKxe7Pymym/9uLEj0I4RIbfk6hcdTAwMWbXh2e207SX/PH771037nhpL3DrnnPtJ303SNJ+w4+cetT93U+9bvJcdTAwMWbz759u1/t3L+o20tixXHUwMDBmWfVcdTAwMWF+XHUwMDFhxffP8lx1MDAwMq/rhWlcdTAwMDJ3/y98r1T+XHUwMDFl/pupnVx1MDAxYsfRfcWGxbZyWnGcL/4zXG6HNcVcXDOJJMFsdIafbMLDUq9cdTAwMDGHm1Bhz1x1MDAxZTFFK/3mp3o/+bzVrZ6c1dePYn53eOLb5zb9IDhKb4NhnZJcYppijyVpXHUwMDFjdbwzv5G2v3dapnzaVXHUb7VDLzFtR6PSqOfW/fTWtFx1MDAwMdlSN2xccu9hS1x1MDAwNvCNMeZwTKCdSkqslX2yuZ5i6Vx1MDAxMIm05IhgKVx0XHUwMDE1uYptRFx1MDAwMbxcdTAwMDao2C/YM39s1WpuvdOC+oWN0Tlp7IZJz43hZdnzblx1MDAxZZqMOXMoIYpcdTAwMGIuqdSY0NEpbc9vtdOxqife8CVgpjVcdTAwMTPwomy9zDN7u42hNfxluz5cdTAwMDY72jWXhP0gyPZf2Hjov+9WY+2GPJR8s40y51cz9maf0O813HvLwFJcdTAwMTBKXHUwMDE4XHUwMDE3lFBrXYFcdTAwMWZ28o9cdTAwMGaiemeCMSWpXHUwMDFip+t+2PDDVv5cdTAwMTIvbNgjmSo/OMGwiSu9nVx1MDAwYv/2vH18nNxy91KeXFxsxWp11OWmO1wisFPToY5cdTAwMTBcdTAwMTJhSTFFXHUwMDAyUaVJ5qSW2zMu4lxiTlx1MDAxOUeUcimFxIU+XHTcJN2Iul0/heZcdTAwMWZEfpjm6zxsz5rxwbbnXHUwMDE23lx1MDAwMbQoe1xmrMS/N9XRXHUwMDE5PXNT697mY3+qWKtcdTAwMTh+XHUwMDE5/fzXb1x1MDAxM8+ebme5y9/lbrNcdTAwMDLd7lxyhjhBK+8yfVDATezV01xcXHUwMDEzMjxUguaLLXJcdTAwMDTigjFaXHUwMDFlObtXt5dcdTAwMDfR3jFSV8ed4Pr87vI62Xsu5Fjr/lx1MDAxMeRcdTAwMTAmXHUwMDFjRVx1MDAwNFx1MDAxNlxmXHUwMDEzQXSGr+Z6XCKxw1x1MDAxNOVaIYpcdNH66YijpFx1MDAwM/2tXHUwMDE4l1x1MDAwMjOBka3IiDhwXG4nXHUwMDA0XGZfg/0rzlWBQEJhQTA4x0RcdTAwMDJZb1wiR59uPcGvXHUwMDA2zXS9+6GWND9cdTAwMWRtP9hR1sjmXHUwMDAyXHUwMDE1fVx1MDAxY1Sja+zVXHUwMDE5i029QbqS9YNcdTAwMDfrOrw73Lncr5+LTvPP/fju8z6qkcbK6Lxvv02+7f3FtaA50K1GJHY/XHUwMDFkpf3B6dWntbZcdTAwMWF/yvhcdTAwMDBd8r7J3XlYve7Lzs7HqryLcHBYra+Xu2+hu1x1MDAxN0hti1x1MDAwNzxcdTAwMWJcdTAwMGZjnT1GXHUwMDA2OpVcZlxcMqAzkqg0XHUwMDE4Jr+65Vx1MDAwNoPWXHUwMDBlQUZnXHUwMDEwpkB44TEwUIRcdTAwMWRBXHUwMDE56Fx1MDAxMOhcdFAqXHUwMDE5SC6aXGaKOIozYFx1MDAxM8dCIKByXHUwMDExXGZcdTAwMDSEXHUwMDExwZwqqI9gSihRIFx1MDAwM2BcXFBcdTAwMGVseDYyjFx1MDAxZHhcdTAwMWWt0ozC9Mi/XHUwMDFiyiXqgJjQiEgtNYeuXHUwMDE5O2nL7frB7Zg9XHJcdTAwMWTBjGFh3W+MvVxic2Qt8FvGLVbqcMiLxzwm9SFcdTAwMTJcdTAwMTid0PVcdTAwMWKN7GBbh8e5fujFu2WGyCj2W37oXHUwMDA2x1NrXHUwMDAz3eHtfH/x2ME8Y1iJZ46aZtnusyQg9iZuP41cdTAwMGW95L6r0rjvzcVcYor19IBFUoaVYLaDXHUwMDFmY8Tl1mprnbTOyOmHL9v6Qp/dfky3l5tcdTAwMTGUKUeBdcHgXHLDsbaj7lx1MDAxMFx1MDAxMUQ7WkqQsVxcgKZFeHq40kSqjtD8iJDcXHUwMDExyihmhlx1MDAxONFCWWO3iMCOXHUwMDA0fUFcdTAwMTVcdTAwMDKogX6egFxiKplCklmNM5lcdTAwMTDnn/sqrp6m3lq12T47XFxccmsnSmT1/FtBXGJWjiaEIKElQ4hAXHUwMDAwXpYh/bBcdTAwMTNGN+HTIGSsXHUwMDE1eV5cdTAwMTSeXFxcblx1MDAxN9i2zOKCLlx1MDAxYVx1MDAxN1x1MDAxMol86XdaXHUwMDEwXHUwMDA0XHUwMDFmMD5ruI/RYnZUuZS0XHUwMDEwSEEwoSDOk0pIIXKKXHUwMDAyw9thXGZpkPZcdTAwMDRBzDGVXHUwMDE2ML57WsxPXHUwMDBiwcCuXHUwMDAxWfZcdCNKUFxihlxuXFxcdTAwMDBn4lxcXCJkz587rTHboWfp7KO9s3bQXHJcdTAwMGaOXHUwMDBlP9T97TVKj07qdFx1MDAwMfp9dpZs5n2fUr9nMSTGSmdgp+bVo66XfFxyf61cdTAwMDdR4jV+nVx1MDAwMqDAa6Yz8JNGvbnYM+PxpShEM1phRCE2L4Wmplkx1ShfPFItglx1MDAxYlx1MDAwN6Q/XHUwMDAwotlcdTAwMDHgkqZZqcNgVMNYXHUwMDEwYTKq1sKGJKKgnZFcIvA/KFxugaeT6OfTrNRBikmsJSBcdTAwMDZjPCG2ocwxyVx1MDAwZSS4XHUwMDE0XHUwMDE0ojGdqc49oFx1MDAxNFx1MDAxNkwjbtv49rKu03Krs6OJis2trlwihyOGXGJ0XCLjMFx1MDAwNGX0X8UmV1x1MDAxMXSwScAqULScXHUwMDE3ml4q3Xv1vrO2e/Hx+ujmzDu9i3SCOnF7crqXS8xcdTAwMTnjMOZpMFokXHUwMDBiNcLEkZJcbka5MVNcYoFloU6vLOHLkFx1MDAwMz6nXHRcdTAwMDTj8DpArbPs5Vx1MDAxMDFwzlx1MDAxOZFcbj5cZkv92O2mO5D5XHUwMDE0XcferzB4WeTy+TJGXG5PXHUwMDBmXHUwMDA2KVx1MDAwNaxKlVx1MDAxMYCPYXW2XHUwMDE5Lam+01x1MDAwZSXDXHUwMDEwijBcdTAwMTB646lkKohcdTAwMDPHOOFYMvDDXHUwMDE5s1dcdTAwMWWimOLnXHUwMDE0eFx1MDAxMjNcdTAwMDUm9JJcdTAwMDJvSVx1MDAxM6k/KcSaflxmuHwxIVZ4/PxCTMwrxKbxXHUwMDAyXHUwMDEzJfPFdu5cdGCBteLlddj59d7pIbrquYPDPd7aTKNcdTAwMDP2aWP5gYFcdTAwMTEniimIrrTOzT2Br0ozaHNQN4xcdTAwMTOdr5hcdTAwMDVcdTAwMDZpao+xn1x1MDAwMIZwYJxcdTAwMDBClyRcdTAwMDbEr5hcdTAwMTGKJk8zPVx1MDAxMzCeakaHn+2dNE70oVx1MDAxYp7u3lxc4Vx1MDAxZPc4vTt+9SCKPTDf61x1MDAxN4xcdCdUYH5cdTAwMTjJRcNcYox/unjhgCOkf4BFX1Z3a1x1MDAxZtY2XHUwMDBm3e2jam8gP2x+TkhvuVlcdTAwMDR6xIHwgGhcdTAwMDXnglx1MDAxNLBZ4DFcdTAwMTZcdIyoyWA9XUyooVx1MDAxZdLMtpdVLyC0qDT52ZeE0VuCXHUwMDA2XHUwMDA0TGk/qdxX42tcdTAwMThGqd9cdTAwMDRcdTAwMTikxlOeXHUwMDE1XHUwMDFlpSoyP0TUoiGSnXjJQ1x1MDAwNJtRXv5IYmnQcNf2v9COuLhcdFZcdTAwMDM//qx6YIdLXHUwMDBlXHUwMDExXHThLVx1MDAwNzEjIfqQmcaOR0BcdTAwMDSCUYaWhyGSXHUwMDBiTTHKzJo+XHUwMDExQv7v5M/t5Hrx+WOSeVDezVx1MDAxOUNIkVx1MDAxZlhcdTAwMTkze+BYyvSxUGa6mSlgmtZE03EvJ0w5VCuqmGBIYpFcdTAwMTFWi3ZzZlKISmEqsSaEZebfZyzSpVpoJLh6y4t0p+VmZ8fIlbF0MVx1MDAxNUJzKTiMWvCDoJPyxdpMViqtldCMzpkvnq2VK9l88UOVlFwimJqcMZ9QJSmwkFx1MDAxNHyQcU6wKtTp9eWLJ5t47uqCiLRcdTAwMDRcXJudzp3OuexcdTAwMDLTPOdcdTAwMTSYKtflV1x1MDAwNit2cFx1MDAxMF3UU3+n3lb73W7to9/8suyYY1x1MDAwZddcYnqeXHUwMDAz0Vx1MDAwNVx1MDAxZY+IqCRcdTAwMGVcdTAwMDHZQCRlXHUwMDFhxE4ml7VwzDGIzFx1MDAxMOgqsFx1MDAwMq2UYFx1MDAxM1RNkXPgXCKcMTCaN8y56ZtcdTAwMTHGb/bKfH7q+85dPsPp1+d0elx1MDAwMrSf6vQwXHUwMDFhmLQsLq9uZufoltLtzVx1MDAxZSSNXHUwMDE5jDFmKk5cdTAwMTZ2XHUwMDA0aO6YwYdBmMO4xOTp/Fx1MDAxZXPiYLNgj0HYXGKIXHUwMDExXHUwMDEzNiExiHSU2ZogKTFAJoVlfURcdTAwMTGtXGJ6y1x1MDAxOPjp2XHkXHUwMDAw3iWw3KzlpFx1MDAxYZRrQVlg5IBNgOZcdTAwMTVcdTAwMDKCVyFJse2l5E5pXHSGjIo2e90ollxmayTlhEpcdTAwMTFcdTAwMDdxMFx1MDAwZoCEIFxmql3ce/Ha2Fx1MDAwN81mjJhcdTAwMDFcdTAwMTWcjyGdvXqVmSVyiDEzwzrcXHUwMDAx+NjtprvQ/f1cbt5TXG6uXHUwMDFi802QXHUwMDBiNXXdXHUwMDExXHUwMDAzbUe04OXJutZcdTAwMWSsduPuPk7ck83E29443924eiXZIYHg9aLMnsr79Y9G4Fx1MDAxM4HA6IVcdTAwMTZg0U9cdTAwMDdWKVx1MDAxY22yxmVTzFxmXHRwRPWyKeafWFx1MDAwMVmw5VwiizWQzTb8qbNPjahcdTAwMTJGaVx1MDAwNd5SvVNJ235S8Vx1MDAxZjY6/OtreNlP0kqSRrFX8dNKM4orJkfkJ6lfz+Q/nyM3tYBqzp+52lxcfOZKMJYvXHUwMDFliTtEXHUwMDExwYSi8lx1MDAxYjZmXHUwMDFi5FKKO6GIw1x1MDAwNVxiO2goJ8q+jHtcdTAwMDIpXGK2zS5PgVx1MDAxMYhcdTAwMDH8hJkrZvaNME41JYpm92tNj+hAmcNcdTAwMTjBxFx1MDAxMiauXHUwMDA0QjpjWotXcqX3kJt1jlpcdTAwMTBNMYdhxlxizEmbyEHaXHUwMDEzkFbYrHOE+Go+JTd7XHUwMDA0XHUwMDFlU3J8uDVcdTAwMGZcdTAwMGJsVCbOilx1MDAxYasusaBaa0UlyFx1MDAwNEZe/c72qVx1MDAxNp67eobMqs4ns2hml3ZcdTAwMGVymoMghNC6/DJEdrdVbVx1MDAwZq5cdTAwMWFcdTAwMWZbXHUwMDFiJ++r4aF329pY8kk4XGJcdTAwMDNcdTAwMWOJmNmSZlbx4vFdaVx1MDAwNMFRyk16iIIge8LoXHUwMDE1U1x1MDAwN1x1MDAwMiUuSk/CUUmwXCKL4NtrmYRbXHUwMDBiQKl03dBtefHXMFx1MDAwMVx1MDAxN00qL7VSp2xd5lx1MDAxNzRbi55vp2hqQMVcdTAwMTmEfVx1MDAxMFx1MDAxMZdXM0nNr1x1MDAxZZ/ivat4r7Vbq21uJHhwueyezlx1MDAxZKyZ0poyzmVmr+39766goHUgoNLILGFC7Om2qMMoXG5jXHUwMDFjXHUwMDEzpZdcdTAwMWNcdTAwMGJJlfl9XHUwMDFhtkpv3tfD6GGOO6k0+mZV7tfwezDhpH7Xi/pp4szeOPpEnj9fzebnwPaiOZDdXHUwMDEzlE+sMKQ4XHUwMDExunxiZX13d/VAXHLuLrb2WLLf8lx1MDAwZWvve5vLzlx1MDAwMemAUUtKQW1RkV92I6XDsNZmjYuEvzhXr8Uuu/lcdTAwMDFcYoBcdTAwMWFcdTAwMDZKQ9T1v1x1MDAwM4GJg+yL7Fx1MDAxMShXk/mdfOdRJ3/3oPpX3F7vKIXXMoq1wFx1MDAwZfzG99/j8WDq92WpZ6Ilninai1x1MDAxYV41dGtB/lx1MDAxNa1cXPvezXrRgn9pXHUwMDBlPya2XHUwMDE4csZ4tDdcZoq/vfv2XHUwMDBmLITzsiJ9<!-- payload-end --></metadata><defs><style class="style-fonts">
      </style></defs><rect x="0" y="0" width="687.7832169495109" height="229.48484390056012" fill="#ffffff"></rect><g stroke-linecap="round"><g transform="translate(207.6859087509068 122.53586198439535) rotate(0 77.16142828689561 0)"><path d="M0 0 C25.72 0, 128.6 0, 154.32 0 M0 0 C25.72 0, 128.6 0, 154.32 0" stroke="#1e1e1e" stroke-width="2" fill="none"></path></g><g transform="translate(207.6859087509068 122.53586198439535) rotate(0 77.16142828689561 0)"><path d="M154.32 0 L140.73 6.34 L140.73 -6.34 L154.32 0" stroke="none" stroke-width="0" fill="#1e1e1e" fill-rule="evenodd"></path><path d="M154.32 0 C149.16 2.41, 143.99 4.82, 140.73 6.34 M154.32 0 C151.57 1.28, 148.81 2.57, 140.73 6.34 M140.73 6.34 C140.73 1.73, 140.73 -2.87, 140.73 -6.34 M140.73 6.34 C140.73 1.63, 140.73 -3.08, 140.73 -6.34 M140.73 -6.34 C145.08 -4.31, 149.44 -2.28, 154.32 0 M140.73 -6.34 C143.48 -5.06, 146.23 -3.77, 154.32 0 M154.32 0 C154.32 0, 154.32 0, 154.32 0 M154.32 0 C154.32 0, 154.32 0, 154.32 0" stroke="#1e1e1e" stroke-width="2" fill="none"></path></g></g><mask></mask><g stroke-linecap="round" transform="translate(10 76.74848499385291) rotate(0 93.80292288073052 43.761388466792795)"><path d="M21.88 0 C59.76 -1.26, 102.04 -0.26, 165.73 0 M21.88 0 C71.38 -0.12, 120.43 -0.47, 165.73 0 M165.73 0 C179.05 -0.32, 186.74 6.71, 187.61 21.88 M165.73 0 C181.51 2.17, 189.33 8.52, 187.61 21.88 M187.61 21.88 C188.23 35.98, 188.51 45.5, 187.61 65.64 M187.61 21.88 C188.92 32.46, 188.55 40.83, 187.61 65.64 M187.61 65.64 C187.95 82.16, 181.29 87.75, 165.73 87.52 M187.61 65.64 C188.74 80.45, 180.93 88.64, 165.73 87.52 M165.73 87.52 C110.67 85.05, 51.77 85.14, 21.88 87.52 M165.73 87.52 C136.53 88.5, 107.43 89.02, 21.88 87.52 M21.88 87.52 C5.46 86.82, 1.18 81.56, 0 65.64 M21.88 87.52 C5.41 86.5, -1.9 80.96, 0 65.64 M0 65.64 C-1.99 46.94, -1.08 32.67, 0 21.88 M0 65.64 C0.5 47.47, -0.58 31.77, 0 21.88 M0 21.88 C0.88 8.97, 8.4 -0.07, 21.88 0 M0 21.88 C-0.31 9.27, 8.58 1.77, 21.88 0" stroke="#1e1e1e" stroke-width="2" fill="none"></path></g><g transform="translate(62.375608122429725 106.89910435182134) rotate(0 41.42731475830078 13.610769108824343)"><text x="41.42731475830078" y="20.00237518659257" font-family="Helvetica, Segoe UI Emoji" font-size="23.67090279795538px" fill="#1e1e1e" text-anchor="middle" style="white-space: pre;" direction="ltr" dominant-baseline="alphabetic">Incident</text></g><g transform="translate(112.06935465930562 135.24277952993316) rotate(0 37.84019470214844 10.880269010051705)"><text x="37.84019470214844" y="15.98963446738745" font-family="Helvetica, Segoe UI Emoji" font-size="18.922206974002947px" fill="#f08c00" text-anchor="middle" style="white-space: pre;" direction="ltr" dominant-baseline="alphabetic">unknown</text></g><g transform="translate(371.66221566047477 116.40898054470648) rotate(0 32.4609375 18.400000000000006)"><text x="0" y="13.5203125" font-family="Helvetica, Segoe UI Emoji" font-size="16px" fill="#868e96" text-anchor="start" style="white-space: pre;" direction="ltr" dominant-baseline="alphabetic">becomes</text><text x="0" y="31.920312499999998" font-family="Helvetica, Segoe UI Emoji" font-size="16px" fill="#868e96" text-anchor="start" style="white-space: pre;" direction="ltr" dominant-baseline="alphabetic">'closed'</text></g><g stroke-linecap="round"><g transform="translate(206.64354749997958 138.87312035208447) rotate(0 76.54235986775558 17.179253288188647)"><path d="M0 0 C6.77 4.93, 15.11 23.83, 40.63 29.56 C66.14 35.28, 134.34 33.56, 153.08 34.36 M0 0 C6.77 4.93, 15.11 23.83, 40.63 29.56 C66.14 35.28, 134.34 33.56, 153.08 34.36" stroke="#1e1e1e" stroke-width="2" fill="none"></path></g><g transform="translate(206.64354749997958 138.87312035208447) rotate(0 76.54235986775558 17.179253288188647)"><path d="M153.08 34.36 L139.42 40.55 L139.56 27.87 L153.08 34.36" stroke="none" stroke-width="0" fill="#1e1e1e" fill-rule="evenodd"></path><path d="M153.08 34.36 C149.53 35.97, 145.97 37.58, 139.42 40.55 M153.08 34.36 C149.24 36.1, 145.39 37.84, 139.42 40.55 M139.42 40.55 C139.46 36.75, 139.5 32.95, 139.56 27.87 M139.42 40.55 C139.46 36.89, 139.5 33.23, 139.56 27.87 M139.56 27.87 C144.96 30.46, 150.36 33.05, 153.08 34.36 M139.56 27.87 C143.86 29.93, 148.16 31.99, 153.08 34.36 M153.08 34.36 C153.08 34.36, 153.08 34.36, 153.08 34.36 M153.08 34.36 C153.08 34.36, 153.08 34.36, 153.08 34.36" stroke="#1e1e1e" stroke-width="2" fill="none"></path></g></g><mask></mask><g transform="translate(372.50191079819706 168.07241213688036) rotate(0 32.4609375 18.400000000000006)"><text x="0" y="13.5203125" font-family="Helvetica, Segoe UI Emoji" font-size="16px" fill="#e03131" text-anchor="start" style="white-space: pre;" direction="ltr" dominant-baseline="alphabetic">becomes</text><text x="0" y="31.920312499999998" font-family="Helvetica, Segoe UI Emoji" font-size="16px" fill="#e03131" text-anchor="start" style="white-space: pre;" direction="ltr" dominant-baseline="alphabetic">'firing'</text></g><g transform="translate(372.27912067430805 42.015292453075915) rotate(0 33.29296875 18.400000000000006)"><text x="0" y="13.5203125" font-family="Helvetica, Segoe UI Emoji" font-size="16px" fill="#2f9e44" text-anchor="start" style="white-space: pre;" direction="ltr" dominant-baseline="alphabetic">becomes</text><text x="0" y="31.920312499999998" font-family="Helvetica, Segoe UI Emoji" font-size="16px" fill="#2f9e44" text-anchor="start" style="white-space: pre;" direction="ltr" dominant-baseline="alphabetic">'resolved'</text></g><g transform="translate(499.1991339746826 42.01529306646094) rotate(0 48.03515625 18.39999999999999)"><text x="0" y="13.5203125" font-family="Helvetica, Segoe UI Emoji" font-size="16px" fill="#1e1e1e" text-anchor="start" style="white-space: pre;" direction="ltr" dominant-baseline="alphabetic">status update</text><text x="0" y="31.920312499999998" font-family="Helvetica, Segoe UI Emoji" font-size="16px" fill="#1e1e1e" text-anchor="start" style="white-space: pre;" direction="ltr" dominant-baseline="alphabetic">notification</text></g><g transform="translate(500.7988416612865 168.07241223986347) rotate(0 48.03515625 18.400000000000006)"><text x="0" y="13.5203125" font-family="Helvetica, Segoe UI Emoji" font-size="16px" fill="#1e1e1e" text-anchor="start" style="white-space: pre;" direction="ltr" dominant-baseline="alphabetic">status update</text><text x="0" y="31.920312499999998" font-family="Helvetica, Segoe UI Emoji" font-size="16px" fill="#1e1e1e" text-anchor="start" style="white-space: pre;" direction="ltr" dominant-baseline="alphabetic">notification</text></g><g stroke-linecap="round"><g transform="translate(448.8586471730024 53.66327160333992) rotate(0 20.289406859612484 0)"><path d="M0 0 C6.76 0, 33.82 0, 40.58 0 M0 0 C6.76 0, 33.82 0, 40.58 0" stroke="#1e1e1e" stroke-width="2" fill="none"></path></g><g transform="translate(448.8586471730024 53.66327160333992) rotate(0 20.289406859612484 0)"><path d="M40.58 0 L26.98 6.34 L26.98 -6.34 L40.58 0" stroke="none" stroke-width="0" fill="#1e1e1e" fill-rule="evenodd"></path><path d="M40.58 0 C36.29 2, 32 4, 26.98 6.34 M40.58 0 C36.36 1.97, 32.14 3.94, 26.98 6.34 M26.98 6.34 C26.98 2.98, 26.98 -0.38, 26.98 -6.34 M26.98 6.34 C26.98 1.84, 26.98 -2.65, 26.98 -6.34 M26.98 -6.34 C32.04 -3.98, 37.09 -1.63, 40.58 0 M26.98 -6.34 C30.55 -4.68, 34.11 -3.02, 40.58 0 M40.58 0 C40.58 0, 40.58 0, 40.58 0 M40.58 0 C40.58 0, 40.58 0, 40.58 0" stroke="#1e1e1e" stroke-width="2" fill="none"></path></g></g><mask></mask><g stroke-linecap="round"><g transform="translate(447.76420745647056 177.52181431249886) rotate(0 22.010312568994323 0)"><path d="M0 0 C7.34 0, 36.68 0, 44.02 0 M0 0 C7.34 0, 36.68 0, 44.02 0" stroke="#1e1e1e" stroke-width="2" fill="none"></path></g><g transform="translate(447.76420745647056 177.52181431249886) rotate(0 22.010312568994323 0)"><path d="M44.02 0 L30.43 6.34 L30.43 -6.34 L44.02 0" stroke="none" stroke-width="0" fill="#1e1e1e" fill-rule="evenodd"></path><path d="M44.02 0 C40.44 1.67, 36.86 3.34, 30.43 6.34 M44.02 0 C40.14 1.81, 36.27 3.62, 30.43 6.34 M30.43 6.34 C30.43 1.97, 30.43 -2.39, 30.43 -6.34 M30.43 6.34 C30.43 2.75, 30.43 -0.84, 30.43 -6.34 M30.43 -6.34 C35.47 -3.99, 40.51 -1.64, 44.02 0 M30.43 -6.34 C34.3 -4.53, 38.17 -2.73, 44.02 0 M44.02 0 C44.02 0, 44.02 0, 44.02 0 M44.02 0 C44.02 0, 44.02 0, 44.02 0" stroke="#1e1e1e" stroke-width="2" fill="none"></path></g></g><mask></mask><g stroke-linecap="round"><g transform="translate(208.08865742918775 100.57482946719426) rotate(0 76.06901218943781 -23.041561366129713)"><path d="M0 0 C6.72 -6.86, 14.99 -33.46, 40.34 -41.14 C65.7 -48.82, 133.51 -45.26, 152.14 -46.08 M0 0 C6.72 -6.86, 14.99 -33.46, 40.34 -41.14 C65.7 -48.82, 133.51 -45.26, 152.14 -46.08" stroke="#1e1e1e" stroke-width="2" fill="none"></path></g><g transform="translate(208.08865742918775 100.57482946719426) rotate(0 76.06901218943781 -23.041561366129713)"><path d="M152.14 -46.08 L138.54 -39.75 L138.55 -52.43 L152.14 -46.08" stroke="none" stroke-width="0" fill="#1e1e1e" fill-rule="evenodd"></path><path d="M152.14 -46.08 C149.19 -44.71, 146.23 -43.34, 138.54 -39.75 M152.14 -46.08 C147.41 -43.88, 142.68 -41.68, 138.54 -39.75 M138.54 -39.75 C138.54 -43.38, 138.54 -47.01, 138.55 -52.43 M138.54 -39.75 C138.54 -44.39, 138.55 -49.02, 138.55 -52.43 M138.55 -52.43 C142.1 -50.78, 145.64 -49.12, 152.14 -46.08 M138.55 -52.43 C141.89 -50.87, 145.22 -49.31, 152.14 -46.08 M152.14 -46.08 C152.14 -46.08, 152.14 -46.08, 152.14 -46.08 M152.14 -46.08 C152.14 -46.08, 152.14 -46.08, 152.14 -46.08" stroke="#1e1e1e" stroke-width="2" fill="none"></path></g></g><mask></mask><g transform="translate(500.7988419495109 115.62749593959165) rotate(0 88.4921875 18.400000000000006)"><text x="0" y="13.5203125" font-family="Helvetica, Segoe UI Emoji" font-size="16px" fill="#1e1e1e" text-anchor="start" style="white-space: pre;" direction="ltr" dominant-baseline="alphabetic">do not track this incident;</text><text x="0" y="31.920312499999998" font-family="Helvetica, Segoe UI Emoji" font-size="16px" fill="#1e1e1e" text-anchor="start" style="white-space: pre;" direction="ltr" dominant-baseline="alphabetic">just store it for statistics</text></g><g stroke-linecap="round"><g transform="translate(445.73938817899364 123.83718657355013) rotate(0 22.44772696641843 0)"><path d="M0 0 C7.48 0, 37.41 0, 44.9 0 M0 0 C7.48 0, 37.41 0, 44.9 0" stroke="#1e1e1e" stroke-width="2" fill="none"></path></g><g transform="translate(445.73938817899364 123.83718657355013) rotate(0 22.44772696641843 0)"><path d="M44.9 0 L31.3 6.34 L31.3 -6.34 L44.9 0" stroke="none" stroke-width="0" fill="#1e1e1e" fill-rule="evenodd"></path><path d="M44.9 0 C41.29 1.68, 37.69 3.36, 31.3 6.34 M44.9 0 C40.75 1.93, 36.6 3.87, 31.3 6.34 M31.3 6.34 C31.3 2.75, 31.3 -0.83, 31.3 -6.34 M31.3 6.34 C31.3 1.41, 31.3 -3.52, 31.3 -6.34 M31.3 -6.34 C34.3 -4.94, 37.3 -3.54, 44.9 0 M31.3 -6.34 C35.79 -4.24, 40.28 -2.15, 44.9 0 M44.9 0 C44.9 0, 44.9 0, 44.9 0 M44.9 0 C44.9 0, 44.9 0, 44.9 0" stroke="#1e1e1e" stroke-width="2" fill="none"></path></g></g><mask></mask><g transform="translate(227.87871439226032 10) rotate(0 56.86328125 18.400000000000006)"><text x="0" y="13.5203125" font-family="Helvetica, Segoe UI Emoji" font-size="16px" fill="#1e1e1e" text-anchor="start" style="white-space: pre;" direction="ltr" dominant-baseline="alphabetic">Alertmanager</text><text x="0" y="31.920312499999998" font-family="Helvetica, Segoe UI Emoji" font-size="16px" fill="#1e1e1e" text-anchor="start" style="white-space: pre;" direction="ltr" dominant-baseline="alphabetic">sends 'resolved'</text></g><g transform="translate(228.3687352192828 78.82749597613343) rotate(0 94.27734375 18.400000000000006)"><text x="0" y="13.5203125" font-family="Helvetica, Segoe UI Emoji" font-size="16px" fill="#1e1e1e" text-anchor="start" style="white-space: pre;" direction="ltr" dominant-baseline="alphabetic">no updates during</text><text x="0" y="31.920312499999998" font-family="Helvetica, Segoe UI Emoji" font-size="16px" fill="#1e1e1e" text-anchor="start" style="white-space: pre;" direction="ltr" dominant-baseline="alphabetic">incident.timeouts.unknown</text></g><g transform="translate(230.3505692670764 182.6848439005601) rotate(0 48.02343750000003 18.400000000000006)"><text x="0" y="13.5203125" font-family="Helvetica, Segoe UI Emoji" font-size="16px" fill="#1e1e1e" text-anchor="start" style="white-space: pre;" direction="ltr" dominant-baseline="alphabetic">Alertmanager</text><text x="0" y="31.920312499999998" font-family="Helvetica, Segoe UI Emoji" font-size="16px" fill="#1e1e1e" text-anchor="start" style="white-space: pre;" direction="ltr" dominant-baseline="alphabetic">sends 'firing'</text></g></svg>