<svg version="1.1" xmlns="http://www.w3.org/2000/svg" viewBox="0 0 543.0096573791984 114.260401083141" width="543.0096573791984" height="114.260401083141"><!-- svg-source:excalidraw --><metadata><!-- payload-type:application/vnd.excalidraw+json --><!-- payload-version:2 --><!-- payload-start -->eyJ2ZXJzaW9uIjoiMSIsImVuY29kaW5nIjoiYnN0cmluZyIsImNvbXByZXNzZWQiOnRydWUsImVuY29kZWQiOiJ4nM1YaVNcdTAwMWI5XHUwMDEw/c6vcDlfw6D7SNXWXHUwMDE2V1xilSUkXHUwMDFjgexuamvskY1gXHUwMDBlMyNcdTAwMTMgxX/fnvGh8YHxuiCLKVxcY6lHarXee93Sz7VGo+nueqb5rtE0t+0wtlFcdTAwMWX+aL4t229MXtgshS5S/S6yft6uLC+c61x1MDAxNe82NpIwvzKuXHUwMDE3h21cdTAwMTPc2KJcdTAwMWbGhetHNlx1MDAwYtpZsmGdSYrfy+9PYWJ+62VJ5PLAT7JuXCLrsnwwl4lNYlJXwOh/we9G42f1XfMuzPNs4FjV7J3DiHA93f4pSytXMeGKU4VcdTAwMTBcdTAwMWJb2GJcdTAwMDdmcyaC7lx1MDAwZXhsfE/Z1Ox3vrT7xbf3ye7pWXvrOOf3R6fWT9yxcXzs7uLKqVwig7X4vsLl2ZU5s5G7XHUwMDE4Ra3W/thbedbvXqSmKFx1MDAxN4/GrVkvbFt3Vy3Qt4Zpt1x1MDAxYcO33MIvxmhAXHUwMDE1ZkJcdTAwMTOKMJZEjLvLXHUwMDAxKJZcdTAwMDGRSEumOcaYKT7l2XZcdTAwMTbDRoBnb7Ap/7xvrbB91Vx1MDAwNVx1MDAwN9NobOPyMC16YVx1MDAwZdvl7X5cZteMlVxuXHUwMDA0I1QxjoTWXHUwMDEyqbHJhbHdXHUwMDBiXHUwMDA3NjJAlFxixFx0p0IrRrBZ91aFqTZcdTAwMDYzrZng8D/uKd3o7UdcdTAwMTVEvvvtyFx1MDAwMVxc++UraT+O6zFNo2FMR1DyYFwiw5ZcdTAwMDe/ztJ+t1x1MDAwNkI/Q79cdTAwMTeFXHUwMDAztGApXGJlnCguXHUwMDA0XHUwMDFk98c2vZqePs7aV3NcdTAwMDBWuDB3WzaNbNqddGyI/2ohzf3ru8vP2cFcdFLXJ1fxzfn95U1xMI51uehcZlx1MDAxMFqiIEBMXHUwMDEwLVxil4pcblx1MDAwMV+0ZtVccntcdTAwMTV6XHUwMDAyXHUwMDA0+Fx1MDAwNzOlXHUwMDE541KwmcWbNHraqc3kdj3Jk0NcXISnO4XZ2z7f376e71x1MDAxNKVcZlEmhEaMXCJcdFx1MDAwZjNO6Vx1MDAwMDCKKFwiQlHJKeEzPsVh4bazJLFcdTAwMGVi/zmzqZuOcVx1MDAxNczNUlx1MDAxNS5MOFx1MDAwM1x1MDAwMFhTvVx1MDAwZlBrXHUwMDA33Fx1MDAxOVv0ykG94JRcdTAwMWb/1PBcZqt+jJ+/v51r/Tjuy888xPtcdTAwMTHXpkZuwl6Y20rzUHOtXHUwMDE2llx1MDAxOU3MTdtNraom2kqo6eaRLDLCmEa1/qdEcTEkX1hcdTAwMTTxSqJImFxiXHUwMDE0XHUwMDExWDBMXHUwMDAw/dhngPJ9XCJxwFx1MDAxNOVaIYpcdNF6yq/nlERcdTAwMTnA3quSeyDRuJaKxpJcYiacXHUwMDEwKYWmXHUwMDE0XHUwMDEyXHUwMDE2n9VDobAgmHI5V1x1MDAwZj2/yPGXOyP49W3HbSVcdTAwMWZbRefL8d5cdTAwMTBFdYitJJv0adlcdTAwMWO/49+u4dWZW9esXHUwMDEzY4iuo/ujXHUwMDBml4ftc3HV+XSY3387RC1cdTAwMTI1x3ZcdTAwMGZv51x1MDAwZrtMvp6Yf1BD+HFnwjKr9Vx1MDAwNDjrcfVcdTAwMWa03pNcdTAwMTgvJvFEUCb469V8pqzRSEqtMcdLM3h+jF83g7VcdTAwMGVcYsJSXHUwMDEywpQkXHUwMDE4TzBcdTAwMTgqnUBQXHUwMDEwU0mVxlpR9mJcdTAwMTRWJFC8zLRcdTAwMWNcdTAwMGKBMFx1MDAxN7NcZiZQYlx1MDAxMVxmpSb4I1x1MDAxOEivmKEwg5xIOZD4l1F4omP5XHUwMDEyhzDIVlqvXHUwMDA0+06WumN7X1VZNFx1MDAxMFB1XCJcIrXUXHUwMDFjQjNh9D5MbHw3gaeKXHRlsknbNprYiLJnM7bdklx1MDAxN802dJl8gjLOwqlibJDYKKrnxDZMXHUwMDE32tTky5RXzSy3XZuG8cmj3kA4zIfRxuNcdTAwMDDzXHUwMDFhsFxuU/aWy6pRcyxcdTAwMDXEXHUwMDBmXHUwMDEy9l12ZIpBqFxc3jcriVx1MDAwNFx1MDAwNX48Jlx1MDAxMlJCJpFcdTAwMDDapTXi8v16d4t0z8jXj3/u6X/02d1cdTAwMWZu73VrXHUwMDA0ZPCAwVx1MDAxMVBWJSdBbDLNU6JcdTAwMDNccoHQhFx1MDAwYkkxwmLKMy9cdTAwMTLAWaPF6lwiwVkgOFIwXHUwMDE3XHUwMDE02z7mXiFwIKFcdTAwMGWAwyjsXHUwMDE5onSOQlDJXHUwMDE0XHUwMDE0zL5cdTAwMTaZL1x1MDAxMOff+irf/erM5m7n4uxoPW2dKlEvxV+DgkCJSVidMisoXGJWgYZcZlxmXHUwMDE1NWwvXCKayVx0q1x1MDAwNVx1MDAxMtKOs8JELyMgXHUwMDEzi5hWi+mJl9JcbuzX5bWCPrdWSP3oeVx1MDAwMMNhXGZcblx1MDAxZI2WP1x1MDAxMSw+XHUwMDBmvkqtgJNAXHUwMDAw7FJcbsDEmaqFY3BLXHUwMDAy28NcdTAwMTjSVENcdTAwMWRcdTAwMGVcdJxOOfaMR1x1MDAwMqLgUM41nH1ndVx1MDAwMkBfq2RGtVx1MDAwM1x1MDAxMlx1MDAxMsSFzJeGZ6T0/1dpl7cqpM6bVVx1MDAwNENMtC5cdTAwMTCIqFx1MDAwMnfDXHUwMDBlk3tcdTAwMDPwalx1MDAxZZGL2HTcXHUwMDAysXBZbyWlWOzBUrpB/bq8buw8t26w2ol1SjfK4o5cbkaWl42iZXdPvuKD6/ygu99q7WxcdTAwMTf49vJ1y1x1MDAwNmAzwFx1MDAxOJe3N1DiU+HFuoKWYCAqXFzDKVx1MDAwNI7o8PRyqiFRILlUeF51QUUwc2lcdTAwMDBcdTAwMTWPKu82/Pa9kGgsorUoq/9fRuuwXHUwMDAzmf3vdESqwNnEZH1XXHUwMDA0XHUwMDBiXHUwMDBiglx1MDAxN2L40s6sTva9J8m+NlTdZtjrXHUwMDFkO9ic5uhqXHUwMDA30GCj0VltXGL5QZsz5SUtrzVcdTAwMWRkkdlNw1Y8vVHNXHUwMDFia35szVwi+U2n+pQpoNKbktmmulZ6WHv4XHUwMDE3XHUwMDA2paanIn0=<!-- payload-end --></metadata><defs><style class="style-fonts">
      </style></defs><rect x="0" y="0" width="543.0096573791984" height="114.260401083141" fill="#ffffff"></rect><g stroke-linecap="round"><g transform="translate(206.55530510382587 62.52500106944035) rotate(0 94.32119225349854 3.5163026268492104e-8)"><path d="M0 0 C31.44 0, 157.2 0, 188.64 0 M0 0 C31.44 0, 157.2 0, 188.64 0" stroke="#1e1e1e" stroke-width="2" fill="none"></path></g><g transform="translate(206.55530510382587 62.52500106944035) rotate(0 94.32119225349854 3.5163026268492104e-8)"><path d="M188.64 0 L175.05 6.34 L175.05 -6.34 L188.64 0" stroke="none" stroke-width="0" fill="#1e1e1e" fill-rule="evenodd"></path><path d="M188.64 0 C183.48 2.41, 178.31 4.82, 175.05 6.34 M188.64 0 C185.89 1.28, 183.13 2.57, 175.05 6.34 M175.05 6.34 C175.05 1.73, 175.05 -2.87, 175.05 -6.34 M175.05 6.34 C175.05 1.63, 175.05 -3.08, 175.05 -6.34 M175.05 -6.34 C179.4 -4.31, 183.76 -2.28, 188.64 0 M175.05 -6.34 C177.8 -5.06, 180.55 -3.77, 188.64 0 M188.64 0 C188.64 0, 188.64 0, 188.64 0 M188.64 0 C188.64 0, 188.64 0, 188.64 0" stroke="#1e1e1e" stroke-width="2" fill="none"></path></g></g><mask></mask><g stroke-linecap="round" transform="translate(10 16.737624149555415) rotate(0 93.80292288073052 43.761388466792795)"><path d="M21.88 0 C59.76 -1.26, 102.04 -0.26, 165.73 0 M21.88 0 C71.38 -0.12, 120.43 -0.47, 165.73 0 M165.73 0 C179.05 -0.32, 186.74 6.71, 187.61 21.88 M165.73 0 C181.51 2.17, 189.33 8.52, 187.61 21.88 M187.61 21.88 C188.23 35.98, 188.51 45.5, 187.61 65.64 M187.61 21.88 C188.92 32.46, 188.55 40.83, 187.61 65.64 M187.61 65.64 C187.95 82.16, 181.29 87.75, 165.73 87.52 M187.61 65.64 C188.74 80.45, 180.93 88.64, 165.73 87.52 M165.73 87.52 C110.67 85.05, 51.77 85.14, 21.88 87.52 M165.73 87.52 C136.53 88.5, 107.43 89.02, 21.88 87.52 M21.88 87.52 C5.46 86.82, 1.18 81.56, 0 65.64 M21.88 87.52 C5.41 86.5, -1.9 80.96, 0 65.64 M0 65.64 C-1.99 46.94, -1.08 32.67, 0 21.88 M0 65.64 C0.5 47.47, -0.58 31.77, 0 21.88 M0 21.88 C0.88 8.97, 8.4 -0.07, 21.88 0 M0 21.88 C-0.31 9.27, 8.58 1.77, 21.88 0" stroke="#1e1e1e" stroke-width="2" fill="none"></path></g><g transform="translate(62.375608122429725 46.88824350752384) rotate(0 41.42731475830078 13.610769108824343)"><text x="41.42731475830078" y="20.00237518659257" font-family="Helvetica, Segoe UI Emoji" font-size="23.67090279795538px" fill="#1e1e1e" text-anchor="middle" style="white-space: pre;" direction="ltr" dominant-baseline="alphabetic">Incident</text></g><g transform="translate(122.58410990832905 75.23191868563566) rotate(0 27.325439453125 10.880269010051705)"><text x="27.325439453125" y="15.98963446738745" font-family="Helvetica, Segoe UI Emoji" font-size="18.922206974002947px" fill="#868e96" text-anchor="middle" style="white-space: pre;" direction="ltr" dominant-baseline="alphabetic">closed</text></g><g transform="translate(404.9237198791984 56.39812009529413) rotate(0 64.04296875 9.199999999999989)"><text x="0" y="13.5203125" font-family="Helvetica, Segoe UI Emoji" font-size="16px" fill="#1e1e1e" text-anchor="start" style="white-space: pre;" direction="ltr" dominant-baseline="alphabetic">delete incident file</text></g><g transform="translate(215.2853611958453 10) rotate(0 85.37890625 18.400000000000006)"><text x="0" y="13.5203125" font-family="Helvetica, Segoe UI Emoji" font-size="16px" fill="#1e1e1e" text-anchor="start" style="white-space: pre;" direction="ltr" dominant-baseline="alphabetic">after</text><text x="0" y="31.920312499999998" font-family="Helvetica, Segoe UI Emoji" font-size="16px" fill="#1e1e1e" text-anchor="start" style="white-space: pre;" direction="ltr" dominant-baseline="alphabetic">incident.timeouts.closed</text></g></svg>